<?xml version="1.0" encoding="utf-8"?>
<!-- Generator: Adobe Illustrator 25.4.1, SVG Export Plug-In . SVG Version: 6.00 Build 0)  -->
<svg version="1.1" id="Layer_1" xmlns="http://www.w3.org/2000/svg" xmlns:xlink="http://www.w3.org/1999/xlink" x="0px" y="0px"
	 viewBox="0 0 402.03 84.25" style="enable-background:new 0 0 402.03 84.25;" xml:space="preserve">
<style type="text/css">
	.st0{fill:#8DC63F;}
</style>
<ellipse class="st0" cx="31.76" cy="12.96" rx="31.76" ry="7.97"/>
<path class="st0" d="M0,25.85l3,52.34h57.51l3-52.34H0z M12.26,72.42c-3.33,0-6.04-8.68-6.04-19.4c0-10.71,2.7-19.4,6.04-19.4
	s6.04,8.68,6.04,19.4C18.3,63.74,15.59,72.42,12.26,72.42z M31.76,72.42c-3.33,0-6.04-8.68-6.04-19.4c0-10.71,2.7-19.4,6.04-19.4
	s6.04,8.68,6.04,19.4C37.79,63.74,35.09,72.42,31.76,72.42z M50.41,71.41c-3.33,0-6.04-8.68-6.04-19.4c0-10.71,2.7-19.4,6.04-19.4
	c3.33,0,6.04,8.68,6.04,19.4C56.45,62.73,53.74,71.41,50.41,71.41z"/>
<g>
</g>
<g>
	<path class="st0" d="M91.27,62.74V32.19h-8.41v10.4h-5.04v-15.5h33.02v15.5h-5.04v-10.4h-8.38v30.56h5.3v5.1H86.05v-5.1H91.27z"/>
	<path class="st0" d="M118.54,62.89V44.43h-5.71v-4.95H123v6.39c0.62-1.66,1.49-3.04,2.61-4.13c1.11-1.09,2.29-1.82,3.53-2.17
		c1.24-0.35,2.93-0.53,5.08-0.53h1.46v5.62h-1.11c-2.83,0-4.95,0.28-6.34,0.85c-1.4,0.57-2.43,1.6-3.11,3.09s-1.01,4.17-1.01,8.04
		v6.24h6.18v4.95h-17.46v-4.95H118.54z"/>
	<path class="st0" d="M166.12,62.89v4.95h-9.73v-3.46c-2.7,2.62-5.7,3.93-9.02,3.93c-2.58,0-4.82-0.84-6.72-2.52
		c-1.9-1.68-2.86-3.83-2.86-6.45c0-2.64,1.01-4.82,3.03-6.56c2.02-1.74,4.46-2.61,7.31-2.61c2.66,0,5.22,0.8,7.71,2.4v-2.81
		c0-1.45-0.14-2.56-0.41-3.34c-0.27-0.78-0.91-1.48-1.92-2.11c-1.01-0.62-2.32-0.94-3.94-0.94c-2.79,0-4.81,1.11-6.06,3.34
		l-5.33-1.41c2.36-4.41,6.45-6.62,12.25-6.62c2.13,0,3.97,0.29,5.52,0.86c1.55,0.58,2.71,1.32,3.47,2.23s1.27,1.89,1.54,2.94
		s0.4,2.73,0.4,5.04v13.12H166.12z M155.84,57.3c-2.4-1.88-4.83-2.81-7.29-2.81c-1.54,0-2.83,0.45-3.87,1.35
		c-1.04,0.9-1.55,2.06-1.55,3.49c0,1.33,0.45,2.44,1.36,3.34c0.91,0.9,2.14,1.35,3.71,1.35c2.7,0,5.24-1.13,7.65-3.4V57.3z"/>
	<path class="st0" d="M169.34,67.84v-9.73h4.98v0.94c0.18,1.33,0.89,2.42,2.15,3.28c1.26,0.86,2.75,1.29,4.47,1.29
		c1.8,0,3.23-0.31,4.31-0.94c1.07-0.62,1.61-1.49,1.61-2.61c0-1.07-0.44-1.86-1.33-2.37c-0.89-0.51-2.65-0.98-5.29-1.4
		c-3.91-0.66-6.7-1.73-8.36-3.2c-1.67-1.48-2.5-3.39-2.5-5.73c0-2.36,0.91-4.34,2.72-5.94c1.82-1.59,4.21-2.39,7.18-2.39
		c2.68,0,4.98,0.55,6.91,1.65v-1.21h4.95v9.4h-4.95v-1.73c-1.5-2.32-3.69-3.49-6.56-3.49c-1.46,0-2.67,0.32-3.62,0.95
		c-0.95,0.63-1.42,1.48-1.42,2.53c0,1.07,0.43,1.81,1.3,2.21c0.87,0.4,2.74,0.82,5.61,1.27c2.75,0.43,4.83,0.93,6.24,1.51
		c1.41,0.58,2.57,1.53,3.5,2.87c0.93,1.34,1.39,2.9,1.39,4.67c0,2.64-1.01,4.73-3.03,6.29c-2.02,1.55-4.64,2.33-7.87,2.33
		c-3.03,0-5.5-0.69-7.41-2.06v1.59H169.34z"/>
	<path class="st0" d="M200.72,62.89V32.04h-5.13v-4.95h10.69v15.64c3.34-2.7,6.51-4.04,9.52-4.04c1.88,0,3.42,0.39,4.63,1.17
		c1.21,0.78,2.04,1.81,2.48,3.09c0.44,1.28,0.66,3.15,0.66,5.61v14.33h4.83v4.95h-10.4V50.5c0-2.15-0.07-3.58-0.21-4.31
		c-0.14-0.72-0.51-1.32-1.13-1.79s-1.34-0.7-2.18-0.7c-2.15,0-4.88,1.22-8.2,3.66v15.53h4.92v4.95h-15.62v-4.95H200.72z"/>
	<path class="st0" d="M272.19,53.52h-14.68l-3.12,9.23h4.95v5.1h-16.05v-5.1h4.93l11.13-31.05h-4.92v-4.6h20.83v4.6h-5.09
		l11.4,31.05h4.56v5.1h-15.97v-5.1h5.07L272.19,53.52z M270.65,48.74l-5.42-17.05h-0.56l-5.65,17.05H270.65z"/>
	<path class="st0" d="M292.01,62.89V32.04h-5.13v-4.95h10.69v15.64c3.34-2.7,6.51-4.04,9.52-4.04c1.88,0,3.42,0.39,4.63,1.17
		c1.21,0.78,2.04,1.81,2.48,3.09c0.44,1.28,0.66,3.15,0.66,5.61v14.33h4.83v4.95h-10.4V50.5c0-2.15-0.07-3.58-0.21-4.31
		c-0.14-0.72-0.51-1.32-1.13-1.79s-1.34-0.7-2.18-0.7c-2.15,0-4.88,1.22-8.2,3.66v15.53h4.92v4.95h-15.62v-4.95H292.01z"/>
	<path class="st0" d="M322.33,53.66c0-4.38,1.45-7.96,4.34-10.77c2.89-2.8,6.42-4.2,10.58-4.2c4.08,0,7.59,1.38,10.52,4.15
		c2.93,2.76,4.39,6.37,4.39,10.83s-1.46,8.07-4.38,10.84c-2.92,2.77-6.43,4.16-10.53,4.16c-4.22,0-7.76-1.41-10.62-4.22
		C323.76,61.63,322.33,58.04,322.33,53.66z M328.22,53.65c0,2.8,0.87,5.09,2.62,6.88c1.75,1.79,3.88,2.68,6.4,2.68
		c2.56,0,4.7-0.9,6.43-2.71c1.73-1.81,2.59-4.09,2.59-6.85c0-2.78-0.88-5.07-2.64-6.87s-3.89-2.7-6.39-2.7
		c-2.62,0-4.77,0.92-6.47,2.76S328.22,50.95,328.22,53.65z"/>
	<path class="st0" d="M365.98,67.34l-9.32-22.91h-4.72v-4.95h14.03v4.95h-3.4l6.12,15.7l6.01-15.7h-3.75v-4.95h13.74v4.95h-4.22
		l-14.03,36.12h-9.4v-4.86h5.54L365.98,67.34z"/>
	<path class="st0" d="M390.39,67.84v-7.21h7.21v7.21H390.39z M395.46,56.8h-2.99L391,39.48V27.09h5.92v12.39L395.46,56.8z"/>
</g>
<path class="st0" d="M32.84,0c-3.48,0-6.3,2.77-6.3,6.18s2.82,6.18,6.3,6.18c3.48,0,6.3-2.77,6.3-6.18S36.32,0,32.84,0z
	 M32.76,10.02c-2.36,0-4.27-1.72-4.27-3.83s1.91-3.83,4.27-3.83s4.27,1.72,4.27,3.83S35.11,10.02,32.76,10.02z"/>
<g>
</g>
<g>
</g>
<g>
</g>
<g>
</g>
<g>
</g>
<g>
</g>
</svg>
